<svg xmlns="http://www.w3.org/2000/svg" viewBox="0 0 1024 1024"><path d="M825.26,861.77H712.64Q634.75,950.56,544,991.92q-28.74,2.26-42.35,2.26-38.58,0-87.73-13.54l-27.21,13.54H354.32q-110.73,0-110.72-78.94a91.9,91.9,0,0,1,1.45-13.54q-80.91-6.8-80.9-77.87a202.94,202.94,0,0,1,1.53-21.18q-30.48-8.24-46.1-27T104,728.42q0-23.25,16.27-49.48-40.35-44-40.35-97.92,0-62.24,67.13-100.19t178-37.95h18.84q-9.08-67.8-41.6-131.1l-12.11-21.1q-39.33-74.6-39.33-115.27,0-112.23,118.53-140.14L391.24,30l37.81,167.26,139.89,148.6q14.35,16.59,49.92,64.12L640,437.89q34,46,48,56.2t45,10.17h88.48q39.57,86.93,39.59,178.38Q861.11,771.85,825.26,861.77Zm-24.9-39.72q23.42-68.64,23.43-131.27a428.52,428.52,0,0,0-25.71-145.59q-95.3,0-119.49-11.32T606,454.61q-19.66-26.4-58.21-74.72l-152-161.53L365.66,79q-75.12,25.63-75.12,96.54,0,37,25.55,79.93L325.85,272q58.56,98.07,58.58,187l.76,21.12H358q-120,0-180.41,23.91t-60.39,72.43q0,44,31.31,74.34t76.59,30.34h46l136.74-61.37q-30.9-47-82.87-47-13.58,0-34.66,6t-49.71,18.19l-34.89,1.52-35.51-37.8,60.75-1.2A309.53,309.53,0,0,1,279.2,543.2Q301,538,319.15,538q96.44,0,140.91,98.53l-25.71,12.14q47.63,23.24,73.35,81l-29.49,12.55Q513,764,542.48,816.63l-46.89,22.23q38.57,27.79,62,78.83l-93,40.21q22.7,6.2,38.56,6.18l29.49-1Q633.22,905,696,822.05ZM455.51,713.2Q429.05,678.06,392,668.33l-112.58,50.2H239.59q-56.37,0-85.67-16-10.24,13.37-10.23,25.28,0,23,23.06,34.57t69.19,11.51h80.15Zm31.77,87.91c-2.52-3-4.56-5.6-6.06-7.63a132.37,132.37,0,0,0-43.09-33.61L322.84,811.21H201.28l-2.22,9.29q0,46.11,87.8,46.08h56.27Zm15.87,102.06q-5.31-6.78-8.31-10.56a168.16,168.16,0,0,0-36.3-37L350.64,903.9H280.91v4.34q0,48.64,73.32,48.62h24.94Z"/></svg>