<svg xmlns="http://www.w3.org/2000/svg" viewBox="0 0 687 765"><path d="M414.85,540.58,344,436.51,271.43,540.58q-15.74,21.82-26.64,31.12T217.07,581q-18.6,0-31.65-11.62t-13.06-26.65q0-15.37,20-44l88.34-126.61L202.4,266.62Q182,240.52,182,221.2q0-15,12.16-26.11T226,184q17.16,0,28.43,9.66t26.29,30.4L344,310.61l61.51-86.55q15.38-21.47,26.65-30.76t28.08-9.3q19.31,0,32,10.91T505,221.2a46.44,46.44,0,0,1-5.18,21.28q-5.19,10.19-15.92,24.14L405.55,372.13,493.9,498.74q20.73,29.68,20.74,44.71,0,15.38-12.88,26.46T469.93,581q-16.81,0-28.43-9.66T414.85,540.58Z"/></svg>